<svg xmlns="http://www.w3.org/2000/svg" viewBox="0 0 400 400" width="400" height="400">
	<defs>
		<linearGradient id="grd1" gradientUnits="userSpaceOnUse"  x1="17.967" y1="217.954" x2="381.865" y2="217.954">
			<stop offset="0" stop-color="#cc3746"  />
			<stop offset="0.5" stop-color="#dd5067"  />
			<stop offset="1" stop-color="#f57499"  />
		</linearGradient>
		<linearGradient id="grd2" gradientUnits="userSpaceOnUse"  x1="17.967" y1="182.018" x2="381.865" y2="182.018">
			<stop offset="0" stop-color="#f7e481"  />
			<stop offset="0.5" stop-color="#a2c24b"  />
			<stop offset="1" stop-color="#7b9c3a"  />
		</linearGradient>
		<linearGradient id="grd3" gradientUnits="userSpaceOnUse"  x1="-0.001" y1="199.986" x2="363.897" y2="199.986">
			<stop offset="0" stop-color="#f7e481"  />
			<stop offset="0.5" stop-color="#ff9a52"  />
			<stop offset="1" stop-color="#dd4d45"  />
		</linearGradient>
		<linearGradient id="grd4" gradientUnits="userSpaceOnUse"  x1="35.935" y1="199.986" x2="399.833" y2="199.986">
			<stop offset="0" stop-color="#7edbf7"  />
			<stop offset="0.5" stop-color="#2f96c1"  />
			<stop offset="1" stop-color="#1e6c90"  />
		</linearGradient>
	</defs>
	<style>
		tspan { white-space:pre }
		.shp0 { mix-blend-mode: multiply;fill: url(#grd1) } 
		.shp1 { mix-blend-mode: multiply;fill: url(#grd2) } 
		.shp2 { mix-blend-mode: multiply;fill: url(#grd3) } 
		.shp3 { mix-blend-mode: multiply;fill: url(#grd4) } 
		.shp4 { opacity: 0.949;fill: #3c3535 } 
	</style>
	<path fill-rule="evenodd" class="shp0" d="M381.86 217.95C381.86 318.44 300.4 399.9 199.92 399.9C99.43 399.9 17.97 318.44 17.97 217.95C17.97 117.47 99.43 36 199.92 36C300.4 36 381.86 117.47 381.86 217.95ZM76.68 94.72C43.76 127.63 25.63 171.4 25.63 217.95C25.63 264.51 43.76 308.27 76.68 341.19C109.6 374.11 153.36 392.24 199.92 392.24C246.47 392.24 290.24 374.11 323.15 341.19C356.07 308.27 374.2 264.51 374.2 217.95C374.2 171.4 356.07 127.63 323.15 94.72C290.24 61.8 246.47 43.67 199.92 43.67C153.36 43.67 109.6 61.8 76.68 94.72Z" />
	<path fill-rule="evenodd" class="shp1" d="M381.86 182.02C381.86 282.51 300.4 363.97 199.92 363.97C99.43 363.97 17.97 282.51 17.97 182.02C17.97 81.53 99.43 0.07 199.92 0.07C300.4 0.07 381.86 81.53 381.86 182.02ZM76.68 58.78C43.76 91.7 25.63 135.47 25.63 182.02C25.63 228.57 43.76 272.34 76.68 305.26C109.6 338.17 153.36 356.3 199.92 356.3C246.47 356.3 290.24 338.17 323.15 305.26C356.07 272.34 374.2 228.57 374.2 182.02C374.2 135.47 356.07 91.7 323.15 58.78C290.24 25.86 246.47 7.73 199.92 7.73C153.36 7.73 109.6 25.86 76.68 58.78Z" />
	<path fill-rule="evenodd" class="shp2" d="M363.9 199.99C363.9 300.47 282.44 381.94 181.95 381.94C81.46 381.94 0 300.47 0 199.99C0 99.5 81.46 18.04 181.95 18.04C282.44 18.04 363.9 99.5 363.9 199.99ZM58.71 76.75C25.79 109.67 7.66 153.43 7.66 199.99C7.66 246.54 25.79 290.31 58.71 323.22C91.63 356.14 135.4 374.27 181.95 374.27C228.5 374.27 272.27 356.14 305.19 323.22C338.1 290.31 356.23 246.54 356.23 199.99C356.23 153.43 338.1 109.67 305.19 76.75C272.27 43.83 228.5 25.7 181.95 25.7C135.4 25.7 91.63 43.83 58.71 76.75Z" />
	<path fill-rule="evenodd" class="shp3" d="M399.83 199.99C399.83 300.47 318.37 381.94 217.88 381.94C117.4 381.94 35.94 300.47 35.94 199.99C35.94 99.5 117.4 18.04 217.88 18.04C318.37 18.04 399.83 99.5 399.83 199.99ZM94.65 76.75C61.73 109.67 43.6 153.43 43.6 199.99C43.6 246.54 61.73 290.31 94.65 323.22C127.56 356.14 171.33 374.27 217.88 374.27C264.44 374.27 308.2 356.14 341.12 323.22C374.04 290.31 392.17 246.54 392.17 199.99C392.17 153.43 374.04 109.67 341.12 76.75C308.2 43.83 264.44 25.7 217.88 25.7C171.33 25.7 127.56 43.83 94.65 76.75Z" />
	<path fill-rule="evenodd" class="shp4" d="M113.32 155.69L104.12 155.69L102.37 159.81L99.16 159.81L107.22 141.56L110.38 141.56L118.36 159.81L115.07 159.81L113.32 155.69ZM112.15 152.95L108.71 144.84L105.26 152.95L112.15 152.95ZM129.13 144.32C127.33 144.32 126.16 145 126.16 146.23C126.16 150.22 136.02 148.08 135.99 154.65C135.99 157.91 133.12 159.92 129.11 159.92C126.24 159.92 123.52 158.74 121.65 157.02L122.98 154.36C124.85 156.08 127.2 157.02 129.16 157.02C131.3 157.02 132.57 156.22 132.57 154.81C132.57 150.74 122.71 153.01 122.71 146.51C122.71 143.38 125.4 141.43 129.37 141.43C131.74 141.43 134.06 142.18 135.75 143.31L134.48 146.02C132.5 144.82 130.51 144.32 129.13 144.32ZM147.68 144.32C145.88 144.32 144.7 145 144.7 146.23C144.7 150.22 154.56 148.08 154.53 154.65C154.53 157.91 151.67 159.92 147.65 159.92C144.78 159.92 142.07 158.74 140.19 157.02L141.52 154.36C143.4 156.08 145.75 157.02 147.7 157.02C149.84 157.02 151.12 156.22 151.12 154.81C151.12 150.74 141.26 153.01 141.26 146.51C141.26 143.38 143.95 141.43 147.91 141.43C150.28 141.43 152.6 142.18 154.3 143.31L153.02 146.02C151.04 144.82 149.06 144.32 147.68 144.32ZM178.22 150.69C178.22 155.9 173.99 159.94 168.55 159.94C163.09 159.94 158.87 155.9 158.87 150.69C158.87 145.44 163.09 141.48 168.55 141.48C173.99 141.48 178.22 145.47 178.22 150.69ZM162 150.69C162 154.31 165 157.18 168.57 157.18C172.14 157.18 175.06 154.31 175.06 150.69C175.06 147.06 172.14 144.24 168.57 144.24C164.97 144.24 162 147.06 162 150.69ZM192.22 144.22C188.57 144.22 185.7 147.03 185.7 150.63C185.7 154.23 188.57 157.07 192.22 157.07C194.04 157.07 195.92 156.24 197.3 154.91L199.13 156.95C197.28 158.77 194.64 159.95 192.06 159.95C186.71 159.95 182.57 155.9 182.57 150.66C182.57 145.47 186.77 141.48 192.16 141.48C194.75 141.48 197.33 142.55 199.1 144.3L197.3 146.54C195.97 145.1 194.07 144.22 192.22 144.22ZM207.49 159.81L204.41 159.81L204.41 141.56L207.49 141.56L207.49 159.81ZM226.27 155.69L217.06 155.69L215.32 159.81L212.11 159.81L220.17 141.56L223.32 141.56L231.3 159.81L228.02 159.81L226.27 155.69ZM225.09 152.95L221.65 144.84L218.21 152.95L225.09 152.95ZM246.61 141.56L246.61 144.32L240.82 144.32L240.82 159.81L237.74 159.81L237.74 144.32L231.98 144.32L231.98 141.56L246.61 141.56ZM254.44 159.81L251.37 159.81L251.37 141.56L254.44 141.56L254.44 159.81ZM279.43 150.69C279.43 155.9 275.2 159.94 269.75 159.94C264.3 159.94 260.07 155.9 260.07 150.69C260.07 145.44 264.3 141.48 269.75 141.48C275.2 141.48 279.43 145.47 279.43 150.69ZM263.2 150.69C263.2 154.31 266.2 157.18 269.78 157.18C273.35 157.18 276.27 154.31 276.27 150.69C276.27 147.06 273.35 144.24 269.78 144.24C266.18 144.24 263.2 147.06 263.2 150.69ZM288.15 141.56L297.93 154.68L297.93 141.56L300.95 141.56L300.95 159.81L297.93 159.81L288.2 146.72L288.2 159.81L285.12 159.81L285.12 141.56L288.15 141.56ZM120.11 227.13L120.06 231.92L104.21 231.92L104.21 241.05L118.57 241.05L118.57 245.79L104.21 245.79L104.21 258.75L98.88 258.75L98.88 227.13L120.11 227.13Z" />
	<path fill-rule="evenodd" class="shp4" d="M148.81 258.75L143.03 249.18C142.57 249.22 142.08 249.22 141.58 249.22L134.08 249.22L134.08 258.75L128.75 258.75L128.75 227.13L141.58 227.13C149.67 227.13 154.32 231.06 154.32 237.93C154.32 242.99 151.97 246.56 147.77 248.18L154.86 258.75L148.81 258.75ZM141.58 244.43C146.46 244.43 149.26 242.36 149.26 238.07C149.26 233.91 146.46 231.92 141.58 231.92L134.08 231.92L134.08 244.43L141.58 244.43ZM186.41 251.62L170.47 251.62L167.44 258.75L161.89 258.75L175.84 227.13L181.31 227.13L195.13 258.75L189.44 258.75L186.41 251.62ZM184.38 246.87L178.42 232.83L172.46 246.87L184.38 246.87ZM208.28 227.13L225.22 249.85L225.22 227.13L230.46 227.13L230.46 258.75L225.22 258.75L208.37 236.08L208.37 258.75L203.04 258.75L203.04 227.13L208.28 227.13ZM256.86 231.74C250.54 231.74 245.57 236.62 245.57 242.85C245.57 249.09 250.54 254.01 256.86 254.01C260.02 254.01 263.28 252.57 265.67 250.26L268.83 253.78C265.63 256.95 261.06 258.98 256.59 258.98C247.33 258.98 240.15 251.98 240.15 242.9C240.15 233.91 247.42 227 256.77 227C261.24 227 265.72 228.85 268.79 231.88L265.67 235.76C263.37 233.28 260.07 231.74 256.86 231.74ZM300.41 227.13L300.41 231.92L283.16 231.92L283.16 240.5L298.6 240.5L298.6 245.25L283.16 245.25L283.16 253.97L300.95 253.97L300.95 258.75L277.83 258.75L277.83 227.13L300.41 227.13ZM129.1 216.37L116.02 197.82L109.45 205.11L109.45 216.37L99.16 216.37L99.16 170.81L109.45 170.81L109.45 191.5L128.39 170.81L140.3 170.81L123.18 189.81L141.47 216.37L129.1 216.37ZM164.82 179.4C157.01 179.4 150.96 185.45 150.96 193.39C150.96 201.33 157.01 207.45 164.82 207.45C168.92 207.45 173.41 205.37 176.67 202.11L182.72 208.69C177.9 213.64 170.94 216.82 164.3 216.82C150.7 216.82 140.41 206.74 140.41 193.52C140.41 180.37 150.89 170.48 164.69 170.48C171.27 170.48 178.16 173.41 182.66 178.03L176.67 185.32C173.54 181.74 169.05 179.4 164.82 179.4ZM197.08 170.81L219.21 200.1L219.21 170.81L228.97 170.81L228.97 216.37L219.6 216.37L197.53 187.14L197.53 216.37L187.7 216.37L187.7 170.81L197.08 170.81Z" />
	<path fill-rule="evenodd" class="shp4" d="M275.38 182.2C275.38 187.08 272.38 190.92 267.5 192.22C273.42 193.33 277 197.75 277 203.74C277 211.55 270.37 216.37 259.82 216.37L238.15 216.37L238.15 170.81L259.1 170.81C269.13 170.81 275.38 175.17 275.38 182.2ZM264.83 184.08C264.83 180.96 262.49 179.14 258.58 179.2L248.43 179.2L248.43 189.16L258.58 189.16C262.49 189.16 264.83 187.27 264.83 184.08ZM266.39 202.44C266.39 199.12 263.4 197.1 258.58 197.17L248.43 197.17L248.43 207.97L258.58 207.97C263.4 207.97 266.39 205.96 266.39 202.44ZM300.95 170.74L300.95 216.37L290.67 216.37L290.67 179.46L281.56 179.46L281.56 170.74L300.95 170.74Z" />
</svg>